<?xml version="1.0" encoding="UTF-8"?>
<svg xmlns="http://www.w3.org/2000/svg" xmlns:xlink="http://www.w3.org/1999/xlink" width="160px" height="160px" viewBox="0 0 160 160" version="1.1">
<g id="surface1">
<path style=" stroke:none;fill-rule:nonzero;fill:rgb(0%,0%,0%);fill-opacity:1;" d="M 65.898438 21.792969 C 61.410156 22.496094 57.917969 27.265625 58.460938 31.902344 C 58.8125 34.785156 60.800781 38.878906 63.078125 41.34375 L 63.878906 42.207031 L 64.488281 40.992188 C 66.121094 37.695312 70.769531 36.574219 74.679688 38.558594 C 76.699219 39.585938 77.179688 40.222656 77.019531 41.664062 L 76.859375 42.847656 L 75.257812 42.785156 C 74.007812 42.71875 73.558594 42.847656 73.269531 43.296875 C 72.757812 44.160156 73.8125 44.800781 75.707031 44.800781 C 76.957031 44.800781 77.242188 44.894531 77.242188 45.34375 C 77.242188 46.464844 79.070312 49.792969 80.257812 50.816406 C 82.597656 52.863281 87.371094 54.6875 90.417969 54.71875 C 91.027344 54.71875 92.722656 54.273438 94.167969 53.761719 C 97.308594 52.609375 98.367188 52.574219 100.257812 53.472656 C 101.957031 54.304688 103.332031 56.289062 103.878906 58.753906 C 104.101562 59.710938 104.359375 60.480469 104.457031 60.480469 C 104.777344 60.480469 106.730469 57.34375 107.5 55.585938 C 108.652344 52.992188 109.070312 50.753906 108.910156 48.0625 C 108.652344 43.742188 106.507812 40.800781 102.851562 39.777344 L 101.058594 39.296875 L 100.511719 36.832031 C 98.847656 29.632812 94.199219 24.351562 88.652344 23.390625 C 85.769531 22.878906 82.5 23.648438 80.707031 25.214844 C 80.191406 25.664062 79.871094 25.566406 77.179688 24.222656 C 72.660156 22.015625 69.230469 21.246094 65.898438 21.792969 Z M 65.898438 21.792969 "/>
<path style=" stroke:none;fill-rule:nonzero;fill:rgb(0%,0%,0%);fill-opacity:1;" d="M 63.332031 42.976562 C 62.917969 43.296875 62.820312 43.617188 62.980469 44.128906 C 63.171875 44.800781 63.300781 44.832031 65.160156 44.640625 C 67.371094 44.382812 67.757812 44.191406 67.5625 43.328125 C 67.46875 42.847656 67.117188 42.6875 65.707031 42.625 C 64.582031 42.558594 63.71875 42.6875 63.332031 42.976562 Z M 63.332031 42.976562 "/>
<path style=" stroke:none;fill-rule:nonzero;fill:rgb(0%,0%,0%);fill-opacity:1;" d="M 64.457031 47.359375 C 63.941406 47.648438 62.789062 52.03125 63.042969 52.671875 C 63.238281 53.183594 64.292969 53.28125 64.582031 52.800781 C 64.777344 52.480469 66.027344 48.191406 66.027344 47.839844 C 66.027344 47.488281 64.839844 47.105469 64.457031 47.359375 Z M 64.457031 47.359375 "/>
<path style=" stroke:none;fill-rule:nonzero;fill:rgb(0%,0%,0%);fill-opacity:1;" d="M 75.382812 47.777344 C 75.191406 48 74.808594 49.152344 74.488281 50.335938 C 73.972656 52.382812 73.972656 52.574219 74.488281 53.054688 C 74.9375 53.503906 75.0625 53.503906 75.449219 53.121094 C 76.152344 52.351562 77.242188 48.128906 76.828125 47.710938 C 76.347656 47.230469 75.800781 47.265625 75.382812 47.777344 Z M 75.382812 47.777344 "/>
<path style=" stroke:none;fill-rule:nonzero;fill:rgb(0%,0%,0%);fill-opacity:1;" d="M 68.78125 51.265625 C 67.371094 53.40625 66.859375 55.230469 66.730469 58.398438 C 66.601562 62.144531 67.050781 64.097656 68.140625 64.257812 C 69.039062 64.382812 69.328125 63.550781 68.878906 62.144531 C 68.6875 61.503906 68.558594 59.9375 68.652344 58.433594 C 68.75 56.351562 69.007812 55.359375 69.777344 53.726562 C 70.480469 52.222656 70.671875 51.457031 70.449219 51.105469 C 70.03125 50.335938 69.328125 50.433594 68.78125 51.265625 Z M 68.78125 51.265625 "/>
<path style=" stroke:none;fill-rule:nonzero;fill:rgb(0%,0%,0%);fill-opacity:1;" d="M 96.3125 59.457031 C 93.429688 61.601562 92.148438 62.753906 92.148438 63.199219 C 92.148438 64.0625 93.078125 64.160156 94.167969 63.390625 L 95.0625 62.753906 L 97.757812 63.425781 C 100.289062 64.0625 100.449219 64.0625 100.832031 63.550781 C 101.441406 62.6875 101.058594 62.113281 99.550781 61.761719 C 98.847656 61.566406 98.042969 61.34375 97.789062 61.246094 C 97.53125 61.152344 98.171875 60.511719 99.457031 59.585938 C 100.640625 58.753906 101.667969 57.886719 101.761719 57.632812 C 101.957031 57.152344 101.378906 56.320312 100.832031 56.320312 C 100.640625 56.320312 98.621094 57.726562 96.3125 59.457031 Z M 96.3125 59.457031 "/>
<path style=" stroke:none;fill-rule:nonzero;fill:rgb(0%,0%,0%);fill-opacity:1;" d="M 75.578125 64.414062 C 74.457031 65.761719 72.820312 66.558594 71.21875 66.558594 C 70.417969 66.558594 70.03125 67.425781 70.578125 68.0625 C 71.027344 68.640625 73.589844 68.414062 75 67.679688 C 76.441406 66.945312 77.949219 65.023438 77.820312 64.0625 C 77.660156 62.753906 76.859375 62.878906 75.578125 64.414062 Z M 75.578125 64.414062 "/>
<path style=" stroke:none;fill-rule:nonzero;fill:rgb(0%,0%,0%);fill-opacity:1;" d="M 84.617188 76.480469 C 80.417969 78.625 75.320312 79.871094 71.921875 79.585938 L 69.902344 79.425781 L 69.710938 80.929688 C 69.617188 81.726562 69.457031 82.945312 69.359375 83.648438 L 69.199219 84.894531 L 70.898438 84.671875 C 75.898438 84.03125 81.441406 81.695312 84.457031 78.945312 C 86.21875 77.34375 87.882812 75.136719 87.277344 75.230469 C 87.148438 75.265625 85.929688 75.808594 84.617188 76.480469 Z M 84.617188 76.480469 "/>
<path style=" stroke:none;fill-rule:nonzero;fill:rgb(0%,0%,0%);fill-opacity:1;" d="M 93.910156 86.304688 C 96.957031 91.070312 95.449219 97.664062 90.097656 103.070312 C 86.859375 106.335938 84.070312 107.679688 83.078125 106.464844 C 82.917969 106.273438 81.792969 104.222656 80.578125 101.984375 C 78.269531 97.632812 76.3125 95.359375 74.902344 95.359375 C 73.269531 95.359375 70.578125 97.664062 66.410156 102.65625 C 64.902344 104.449219 63.527344 105.886719 63.332031 105.824219 C 62.210938 105.441406 62.402344 98.496094 63.652344 94.785156 C 64.519531 92.160156 66.152344 88.832031 67.5625 86.71875 C 68.109375 85.953125 68.492188 85.246094 68.429688 85.183594 C 68.367188 85.121094 66.632812 85.375 64.519531 85.726562 C 54.777344 87.390625 42.597656 92.992188 38.078125 97.886719 C 32.019531 104.480469 25.578125 115.871094 21.027344 127.96875 L 19.550781 131.902344 L 20.800781 133.40625 C 24.871094 138.207031 32.242188 144.160156 39.421875 148.480469 C 52.050781 156.097656 67.660156 160.097656 82.371094 159.585938 C 98.367188 159.007812 113.460938 153.921875 126.3125 144.734375 C 130.640625 141.664062 136.089844 136.800781 139.292969 133.121094 C 143.367188 128.480469 143.109375 129.28125 141.539062 125.40625 C 135.867188 111.550781 127.949219 99.550781 120.671875 93.761719 C 115.289062 89.472656 106.890625 86.367188 98.238281 85.441406 C 96.472656 85.246094 94.582031 85.054688 94.007812 84.960938 L 92.980469 84.832031 Z M 41.632812 128.734375 C 41.988281 129.214844 41.828125 131.617188 40.832031 140.640625 C 40.257812 145.953125 40.191406 146.238281 39.457031 146.238281 C 38.558594 146.238281 38.207031 145.632812 38.367188 144.222656 C 39.292969 134.59375 40.0625 128.832031 40.449219 128.609375 C 41.027344 128.222656 41.21875 128.257812 41.632812 128.734375 Z M 41.632812 128.734375 "/>
</g>
</svg>
